<svg width="9" height="5" viewBox="0 0 15 12" fill="none" xmlns="http://www.w3.org/2000/svg">
<path d="M1.43162 3.89294C1.62037 4.01761 2.18804 4.38862 3.13462 5.00598C4.08121 5.62334 4.80782 6.09869 5.31446 6.43203L5.66784 6.67004C5.84807 6.79271 5.99779 6.89272 6.117 6.97005C6.23621 7.04739 6.38026 7.13206 6.54914 7.22407C6.7001 7.31 6.86029 7.38073 7.02704 7.43507C7.16085 7.4793 7.30138 7.50294 7.44321 7.50508H7.46024C7.60207 7.50292 7.7426 7.47928 7.87642 7.43507C8.04317 7.38071 8.20335 7.30999 8.35432 7.22407C8.5232 7.13006 8.66725 7.04539 8.78646 6.97005C8.90567 6.89472 9.05539 6.79471 9.23562 6.67004C9.41586 6.54737 9.53365 6.46804 9.589 6.43203L13.4804 3.89294C13.8783 3.63372 14.2221 3.30796 14.4947 2.9319C14.7562 2.58717 14.8986 2.17518 14.9024 1.75186C14.8993 1.42121 14.7581 1.10492 14.5093 0.871111C14.2604 0.637302 13.9238 0.50468 13.5719 0.501808H1.33157C1.14487 0.491811 0.958287 0.523376 0.787018 0.593929C0.615749 0.664482 0.46463 0.772032 0.345959 0.907825C0.108917 1.1986 -0.0130116 1.55783 0.00110093 1.92386C0.0274642 2.31625 0.18799 2.69015 0.458782 2.9899C0.727364 3.33964 1.05616 3.64484 1.43162 3.89294Z" fill="#00C4CC"/>
<path d="M14.0701 4.72959C12.2522 5.88564 10.872 6.78567 9.92972 7.42969C9.61396 7.64837 9.35744 7.81904 9.16018 7.94171C8.91128 8.08933 8.64832 8.21487 8.37467 8.31672C8.08627 8.43636 7.77555 8.50128 7.46037 8.50774H7.44228C7.1271 8.50126 6.81638 8.43634 6.52798 8.31672C6.25434 8.21486 5.99137 8.08931 5.74247 7.94171C5.54591 7.8197 5.2894 7.64904 4.97292 7.42969C4.22431 6.91434 2.84666 6.01431 0.839954 4.72959C0.530669 4.53704 0.248505 4.30855 0.000161418 4.04956V10.2498C-0.00262198 10.4143 0.0306176 10.5776 0.0978158 10.7295C0.165014 10.8814 0.264736 11.0187 0.390787 11.1328C0.512305 11.2513 0.658441 11.345 0.820119 11.4081C0.981798 11.4712 1.15557 11.5025 1.33063 11.4998H13.571C13.9229 11.4988 14.2602 11.3672 14.5094 11.1336C14.7586 10.9001 14.8995 10.5835 14.9014 10.2528V4.05257C14.6542 4.30876 14.3751 4.53607 14.0701 4.72959Z" fill="#00C4CC"/>
</svg>
